<svg width="757" height="167" fill="none" xmlns="http://www.w3.org/2000/svg"><path d="M1022.57 264.809c-215.899-37.327-402.558-167.453-468.9-227.85C482.526-19.048 450.732-99.895 444.392-117.27c-6.341-17.375-6.069-56.313 17.346-56.97 23.414-.657 26.743-26.854 99.858 66.507C634.712-14.371 769.594 31.35 839.68 64.263c70.086 32.913 232.07 56.496 252.91 60.636 20.85 4.141 187.39 21.52 186.16 1.527-1.23-19.993-130.46-105.479-184.75-145.586-54.29-40.107-225.395-132.744-355.054-185.138-70.27-28.395-143.275-47.736-255.127-51.123-111.851-3.387-125.718 17.217-155.056 31.131-64.048 30.376-161.918 149.239-81.213 296.845 80.704 147.605 240.105 240.57 303.642 281.093 63.538 40.523 232.928 95.627 245.736 102.469 12.808 6.841 37.873 16.94 34.576 36.16-3.297 19.22-37.351 34.353-59.165 35.865-21.814 1.512-104.446-12.596-202.15-33.932-97.704-21.337-267.793-109.726-369.496-185.858C98.99 232.22 32.049 109.657 11.215 40.932-9.619-27.793-10.54-199.016 122.339-314.811c132.878-115.794 278.332-111.325 357.713-108.827 79.381 2.497 302.457 43.493 567.618 212.701 265.16 169.208 363.66 308.214 386.57 354.602 22.92 46.388 10.36 89.047-19.67 111.267-30.02 22.221-122.13 56.535-392 9.877Z" fill="#00f"/></svg>