<svg width="705" height="535" fill="none" xmlns="http://www.w3.org/2000/svg"><path d="M397.701 64.214c1.237-2.18 2.221-4.174 3.425-5.997 8.662-13.075 17.739-25.833 25.986-39.217 13.851-22.473 27.19-45.337 40.732-68.046.927-1.554 2.188-2.912 2.619-4.784 1.472-6.306-4.555-16.313-14.169-23.905-9.662-7.632-21.106-11.553-25.986-7.86-4.872 3.694-8.263 8.739-12.135 13.32-12.623 14.922-25.116 29.942-37.779 44.832-4.937 5.801-10.208 11.334-15.299 17.005-10.11 11.285-20.366 22.449-30.151 33.994-1.854 2.189-4.229 1.668-8.833-.846-51.696-28.21-102.83-52.464-152.656-69.428-42.48-14.467-82.114-23.377-115.575-20.903-21.749 1.61-38.536 8.307-48.435 21.838C-2.722-29.143-2.73-5.556 7.022 23.296c12.151 35.955 35.64 73.562 65.815 111.811 13.713 17.379 28.923 34.629 43.953 51.813 10.614 12.14 25.238 18.999 33.469 16.403 8.394-2.652 6.686-13.173-4.278-25.255-29.671-32.685-55.551-65.589-74.282-98.891-8.435-14.987-14.787-29.422-18.154-43.01-7.963-32.098 4.408-48.257 36.03-49.111 26.638-.716 58.106 8.153 91.16 20.601 37.527 14.134 75.665 32.327 114.201 53.75 1.22.675 2.44 1.35 3.652 2.083.488.3.96.756 2.79 2.23-2.717 3.384-5.743 6.557-8.126 10.219-9.109 13.986-18.707 27.623-26.84 42.334-15.762 28.534-27.792 59.591-26.433 99.24.732 21.301 5.937 44.49 18.348 70.437 17.666 36.924 46.41 72.488 85.466 106.767 42.261 37.086 87.109 65.279 133.404 87.06 87.288 41.073 163.539 58.998 227.256 51.561 24.766-2.888 44.359-11.269 57.153-26.256 25.872-30.301 18.682-76.312-18.455-136.302-22.57-36.46-53.086-71.699-87.548-106.141-43.359-43.334-90.663-83.057-140.553-120.33-36.641-27.379-73.949-52.813-111.907-76.547-1.668-1.042-3.319-2.165-5.458-3.564l.016.016Zm183.278 169.58c21.635 21.944 41.066 44.474 56.007 67.907 17.95 28.152 24.067 51.008 14.209 62.96-10.362 12.66-23.904 16.883-40.081 18.218-39.887 3.287-87.247-7.706-139.399-28.315-25.197-9.959-50.703-22.286-76.372-39.039-19.634-12.815-36.641-27.428-48.581-45.271-7.971-11.912-12.688-23.043-15.429-33.685-6.409-24.898-4.823-45.548-.691-64.775 8.043-37.436 25.506-68.224 43.725-98.475 1.138-1.888 3.147-.985 6.303 1.188 20.244 13.945 40.659 27.485 60.724 41.805 44.01 31.407 85.962 65.425 124.661 102.731a801.623 801.623 0 0 1 14.933 14.751" fill="url(#a)"/><defs><linearGradient id="a" x1="776.982" y1="534.98" x2="-.012" y2="534.98" gradientUnits="userSpaceOnUse"><stop stop-color="#00F"/><stop offset="1" stop-color="#0FF"/></linearGradient></defs></svg>