<svg width="80" height="60" fill="none" xmlns="http://www.w3.org/2000/svg"><path fill="#EBEBEB" d="M0 0h80v60H0z"/><path d="M49.78 26.424c-3.707 3.562-8.818 5.338-10.91 5.781-2.073.592-4.087.113-4.513 0-.426-.112-1.18-.636-.87-1.085.31-.449-.154-.86 2.674-.992 2.827-.13 5.58-2.058 7.188-2.937 1.608-.88 4.303-3.61 4.672-3.947.368-.337 3.005-3.237 2.599-3.48-.407-.244-3.855 1.047-5.386 1.534-1.53.486-5.697 2.47-8.507 4.21-1.523.942-2.907 2.057-4.517 4.115-1.61 2.058-1.4 2.594-1.533 3.33-.293 1.61.672 5.033 4.661 5.482 3.99.45 8-1.31 9.666-1.964 1.666-.655 5.078-3.106 5.388-3.255.31-.15.852-.487 1.181-.169.33.318.154 1.16-.118 1.59-.271.43-1.686 1.797-3.45 3.35-1.765 1.552-5.834 3.573-8.72 4.47-2.887.899-6.198.525-7.825 0-1.626-.523-4.974-2.787-5.396-6.828-.421-4.041 1.673-6.717 2.818-8.176 1.144-1.46 5.021-5.107 11.977-7.839S51.882 16.882 53.1 17.07c1.22.187 1.878.991 1.896 1.852.019.86-.584 3.05-5.218 7.502Z" fill="#fff"/></svg>